cdparanoia III release 10.2 (September 11, 2008)

track_num = 160 start sector 4350 msf: 1,0,0
track_num = 161 start sector 58350 msf: 13,0,0
track_num = 162 start sector 211855 msf: 47,6,55
track_num = 1 start sector 0 msf: 0,2,0
track_num = 2 start sector 6947 msf: 1,34,47
track_num = 3 start sector 24215 msf: 5,24,65
track_num = 4 start sector 38305 msf: 8,32,55
track_num = 5 start sector 55600 msf: 12,23,25
track_num = 6 start sector 75900 msf: 16,54,0
track_num = 7 start sector 98500 msf: 21,55,25
track_num = 8 start sector 113512 msf: 25,15,37
track_num = 9 start sector 131495 msf: 29,15,20
track_num = 10 start sector 147570 msf: 32,49,45
track_num = 11 start sector 164207 msf: 36,31,32
track_num = 12 start sector 188047 msf: 41,49,22
track_num = 13 start sector 199837 msf: 44,26,37

Table of contents (audio tracks only):
track        length               begin        copy pre ch
===========================================================
  1.     6947 [01:32.47]        0 [00:00.00]    no   no  2
  2.    17268 [03:50.18]     6947 [01:32.47]    no   no  2
  3.    14090 [03:07.65]    24215 [05:22.65]    no   no  2
  4.    17295 [03:50.45]    38305 [08:30.55]    no   no  2
  5.    20300 [04:30.50]    55600 [12:21.25]    no   no  2
  6.    22600 [05:01.25]    75900 [16:52.00]    no   no  2
  7.    15012 [03:20.12]    98500 [21:53.25]    no   no  2
  8.    17983 [03:59.58]   113512 [25:13.37]    no   no  2
  9.    16075 [03:34.25]   131495 [29:13.20]    no   no  2
 10.    16637 [03:41.62]   147570 [32:47.45]    no   no  2
 11.    23840 [05:17.65]   164207 [36:29.32]    no   no  2
 12.    11790 [02:37.15]   188047 [41:47.22]    no   no  2
 13.    12018 [02:40.18]   199837 [44:24.37]    no   no  2
TOTAL  211855 [47:04.55]    (audio only)
 
